<svg width="30" height="30" viewBox="0 0 30 30" fill="none" xmlns="http://www.w3.org/2000/svg">
<path d="M0.600098 15.0004C0.600098 22.9534 7.0471 29.4004 15.0001 29.4004C22.9531 29.4004 29.4001 22.9534 29.4001 15.0004C29.4001 7.04739 22.9531 0.600389 15.0001 0.600389C7.0471 0.600389 0.600098 7.04739 0.600098 15.0004ZM16.8466 9.46239C16.8466 9.46239 18.1036 8.18889 18.6871 7.87539C18.6991 7.86639 18.7111 7.86189 18.7171 7.85889C18.9316 7.73139 19.0981 7.70139 19.2226 7.76439C19.4296 7.86939 19.5316 8.22939 19.5406 8.35239V10.6024C19.5406 10.7584 19.5001 11.0854 19.2271 11.4814C19.0141 11.7859 18.6646 12.0859 18.3241 12.3784C17.8171 12.8149 17.3791 13.1929 17.3791 13.5739C17.379 13.6223 17.3866 13.6704 17.4016 13.7164C17.4946 14.0044 17.9056 14.3734 19.0006 14.3734C19.3426 14.3734 19.5391 14.6434 19.5391 14.8339V15.8644C19.5391 16.2154 19.4161 18.0439 17.7076 19.6639C15.6151 21.6469 11.4181 23.4319 11.3791 23.4469C11.1076 23.5594 10.9621 23.3269 10.9621 23.0734V20.8009C10.9621 20.4979 11.1466 20.3989 11.3101 20.3299C11.5006 20.2489 12.2581 19.9519 13.1101 19.4644C14.4991 18.6739 15.0631 18.1894 15.0631 17.8009C15.0622 17.728 15.0437 17.6565 15.0091 17.5924C14.7271 17.0854 12.9196 17.1799 12.5446 17.2024C12.4741 17.2024 11.7361 17.2039 11.3821 17.4634C11.1256 17.6494 11.0281 17.9659 10.9921 18.1579C10.8849 18.0802 10.7979 17.9778 10.7386 17.8594C10.5646 17.5114 10.5391 16.8844 10.5391 16.2619V15.9154C10.5481 15.2404 10.5916 15.0664 10.6531 14.8219C10.7716 14.3269 11.0911 14.3164 12.1846 14.3599C12.4951 14.3734 12.8461 14.3869 13.2601 14.3869C13.3501 14.3869 13.4461 14.3914 13.5481 14.3914C14.1046 14.4064 14.7361 14.4244 14.9956 14.0314C15.0277 13.9801 15.0449 13.9209 15.0451 13.8604C15.0451 13.7239 15.0451 13.3129 13.1356 12.1999C12.521 11.8566 11.8823 11.5584 11.2246 11.3074C11.1856 11.2849 11.0656 11.2189 11.0191 11.1409C10.9898 11.0833 10.9748 11.0195 10.9756 10.9549V8.28339C10.9756 7.99239 11.0191 7.79289 11.1316 7.75539C11.3101 7.68939 11.8546 7.76739 13.5061 8.98689L14.2246 9.53139C15.6736 10.6369 15.7471 10.6369 16.8466 9.46239V9.46239Z" fill="black"/>
</svg>
