<svg width="30" height="30" viewBox="0 0 30 30" fill="none" xmlns="http://www.w3.org/2000/svg">
<path d="M15.0001 0.600586C7.0471 0.600586 0.600098 7.04759 0.600098 15.0006C0.600098 22.9536 7.0471 29.4006 15.0001 29.4006C22.9531 29.4006 29.4001 22.9536 29.4001 15.0006C29.4001 7.04759 22.9531 0.600586 15.0001 0.600586ZM20.5381 16.8471C20.5381 16.8471 21.8116 18.1041 22.1251 18.6876C22.1341 18.6996 22.1386 18.7116 22.1416 18.7176C22.2691 18.9321 22.2991 19.0986 22.2361 19.2231C22.1311 19.4301 21.7711 19.5321 21.6481 19.5411H19.3981C19.2421 19.5411 18.9151 19.5006 18.5191 19.2276C18.2146 19.0146 17.9146 18.6651 17.6221 18.3246C17.1856 17.8176 16.8076 17.3796 16.4266 17.3796C16.3782 17.3795 16.3301 17.3871 16.2841 17.4021C15.9961 17.4951 15.6271 17.9061 15.6271 19.0011C15.6271 19.3431 15.3571 19.5396 15.1666 19.5396H14.1361C13.7851 19.5396 11.9566 19.4166 10.3366 17.7081C8.3536 15.6156 6.5686 11.4186 6.5536 11.3796C6.4411 11.1081 6.6736 10.9626 6.9271 10.9626H9.1996C9.5026 10.9626 9.6016 11.1471 9.6706 11.3106C9.7516 11.5011 10.0486 12.2586 10.5361 13.1106C11.3266 14.4996 11.8111 15.0636 12.1996 15.0636C12.2724 15.0627 12.344 15.0442 12.4081 15.0096C12.9151 14.7276 12.8206 12.9201 12.7981 12.5451C12.7981 12.4746 12.7966 11.7366 12.5371 11.3826C12.3511 11.1261 12.0346 11.0286 11.8426 10.9926C11.9203 10.8854 12.0227 10.7984 12.1411 10.7391C12.4891 10.5651 13.1161 10.5396 13.7386 10.5396H14.0851C14.7601 10.5486 14.9341 10.5921 15.1786 10.6536C15.6736 10.7721 15.6841 11.0916 15.6406 12.1851C15.6271 12.4956 15.6136 12.8466 15.6136 13.2606C15.6136 13.3506 15.6091 13.4466 15.6091 13.5486C15.5941 14.1051 15.5761 14.7366 15.9691 14.9961C16.0204 15.0282 16.0796 15.0454 16.1401 15.0456C16.2766 15.0456 16.6876 15.0456 17.8006 13.1361C18.1439 12.5215 18.4421 11.8828 18.6931 11.2251C18.7156 11.1861 18.7816 11.0661 18.8596 11.0196C18.9172 10.9902 18.981 10.9753 19.0456 10.9761H21.7171C22.0081 10.9761 22.2076 11.0196 22.2451 11.1321C22.3111 11.3106 22.2331 11.8551 21.0136 13.5066L20.4691 14.2251C19.3636 15.6741 19.3636 15.7476 20.5381 16.8471V16.8471Z" fill="black"/>
</svg>
