<svg width="20" height="20" viewBox="0 0 20 20" fill="none" xmlns="http://www.w3.org/2000/svg">
<path d="M0 10C0 15.5245 4.47613 20 10 20C15.5239 20 20 15.5239 20 10C20 4.47548 15.5239 0 10 0C4.47613 0 0 4.47613 0 10ZM6.85097 5.08839L14.5852 6.72968C15.1335 6.85097 15.2665 7.17742 15.0084 7.6329L13.1658 10.1329L14.3271 11.3387C14.46 11.4716 14.5729 11.5845 14.5729 11.8426L12.0284 11.6652L7.84258 7.03226C7.66516 6.83032 7.56452 7.07677 7.74194 7.34323L11.3465 13.069L10.5761 15.5368C10.4071 16.0729 10.04 16.0852 9.78193 15.4239L6.06387 5.78258C5.90258 5.33484 6.1729 4.94387 6.85032 5.08903L6.85097 5.08839Z" fill="black"/>
</svg>
