<svg width="30" height="30" viewBox="0 0 30 30" fill="none" xmlns="http://www.w3.org/2000/svg">
<path d="M0 10.3956L0 19.6044C0 28.0079 1.99213 30 10.3956 30H19.6044C28.0079 30 30 28.0079 30 19.6044V10.3956C30 1.99213 28.0079 -4.47587e-07 19.6044 -4.47587e-07H10.3956C1.99213 -4.47587e-07 0 2.01181 0 10.3956ZM21.4006 5.78138V7.95913C21.4006 8.7841 20.7462 9.03816 19.2425 10.5222C17.9929 11.8112 17.8269 12.3821 17.8269 12.6999C17.8269 13.149 17.9535 13.2765 18.5694 13.2765H20.5372C21.065 13.2765 21.3818 13.4424 21.3818 14.8392C21.3818 17.1492 19.985 19.7122 17.3826 21.5093C13.569 24.2196 10.7125 24.9611 10.1219 24.9611C9.80407 24.9611 9.50689 24.8345 9.50689 24.2242V22.0418C9.50689 21.4896 9.76095 21.2796 10.3516 21.065C13.4668 19.9859 16.1957 18.1888 16.1957 17.4473C16.1957 17.1735 16.0692 17.047 15.3708 17.047H12.1534C10.6694 17.1304 10.5419 17.9113 10.015 17.9113C9.76094 17.9113 9.50689 17.7013 9.50689 17.3648L9.50689 13.9327C9.50689 13.4686 9.76095 13.298 10.3075 13.298H14.648C15.1167 13.298 15.2826 13.088 15.2826 12.9615C15.2826 12.6877 15.1167 12.4534 14.6086 11.9462C12.8508 10.3787 10.1406 9.25565 10.1406 9.25565C9.82282 9.1094 9.52564 8.85535 9.52564 8.30318V6.12075C9.52564 5.46639 9.86219 5.32015 10.3309 5.46639C11.6003 5.74013 15.3698 8.41099 15.3698 8.41099C15.7504 8.64067 15.9164 8.72879 16.3411 8.41099C16.6589 8.17662 17.3179 7.41446 17.9085 6.90728C18.9678 5.9745 19.8566 5.25733 20.4715 5.06609C21.0818 4.85141 21.3996 5.16828 21.3996 5.78419L21.4006 5.78138Z" fill="black"/>
</svg>
